<?xml version="1.0" encoding="UTF-8"?> <svg xmlns="http://www.w3.org/2000/svg" width="220" height="48.203" viewBox="0 0 220 48.203"><g id="Logo" transform="translate(-111.789 -192.656)"><path id="Path_20" data-name="Path 20" d="M211.2,224.521l-1.3,10.824a2.487,2.487,0,0,1-2.4,2.145H191.351a1.863,1.863,0,0,1-1.888-2.145l1.3-10.824a2.486,2.486,0,0,1,2.4-2.144h16.155a1.859,1.859,0,0,1,1.884,2.144m-1-9.55H194.052a11.071,11.071,0,0,0-10.7,9.55l-1.3,10.824a8.3,8.3,0,0,0,8.4,9.551h16.15a11.073,11.073,0,0,0,10.7-9.551l1.3-10.824a8.3,8.3,0,0,0-8.4-9.55" transform="translate(-12.708 -4.04)" fill="#fabb00"></path><path id="Path_21" data-name="Path 21" d="M372.236,224.311a8.114,8.114,0,0,0-8.218-9.34H347.473a10.828,10.828,0,0,0-10.459,9.34,7.981,7.981,0,0,0,8.24,9.155l16.547,0a1.8,1.8,0,0,1,1.682,2.092,2.243,2.243,0,0,1-2.167,1.934H344.769a1.68,1.68,0,0,1-1.7-1.934h-7.405a8.112,8.112,0,0,0,8.218,9.34h16.543a10.826,10.826,0,0,0,10.461-9.34,8.228,8.228,0,0,0-8.2-9.5l-16.544,0a1.554,1.554,0,0,1-1.725-1.749,2.241,2.241,0,0,1,2.165-1.934h16.546a1.68,1.68,0,0,1,1.7,1.934Z" transform="translate(-40.515 -4.04)" fill="#fabb00"></path><path id="Path_22" data-name="Path 22" d="M305.259,224.521l-.184,1.537H284.636l.184-1.537a2.484,2.484,0,0,1,2.4-2.144h16.153a1.862,1.862,0,0,1,1.886,2.144m-1-9.55H288.109a11.071,11.071,0,0,0-10.695,9.55l-1.3,10.824a8.3,8.3,0,0,0,8.408,9.551h16.152a11.074,11.074,0,0,0,10.7-9.551h-7.406a2.489,2.489,0,0,1-2.4,2.145H285.407a1.864,1.864,0,0,1-1.888-2.145l.272-2.269h27.85l1.024-8.555a8.3,8.3,0,0,0-8.4-9.55" transform="translate(-29.734 -4.04)" fill="#fabb00"></path><path id="Path_23" data-name="Path 23" d="M258.234,220.819l-.578,4.784-.723,6.04a2.486,2.486,0,0,1-2.4,2.145H238.378a1.863,1.863,0,0,1-1.885-2.145l1.3-10.824a2.487,2.487,0,0,1,2.4-2.145h16.15a1.865,1.865,0,0,1,1.889,2.145m3.138-26.3-.681,5.8c0,.016,0,.032,0,.048l-.116.967-.011.093-1.21,10.086a9.244,9.244,0,0,0-2.115-.241H241.082a11.074,11.074,0,0,0-10.7,9.55l-1.3,10.824a8.3,8.3,0,0,0,8.4,9.551h16.153a11.073,11.073,0,0,0,10.7-9.551l.726-6.04.572-4.784,3.155-26.3Z" transform="translate(-21.221 -0.337)" fill="#fabb00"></path><path id="Path_24" data-name="Path 24" d="M327.318,194.517l-.617,5.242a5.876,5.876,0,0,1-.041.605l-4.9,40.829h7.406l5.6-46.677Z" transform="translate(-38.01 -0.337)" fill="#fabb00"></path><path id="Path_25" data-name="Path 25" d="M158.846,220.581h8.183l.889-7.406h-8.185l.976-8.124h-7.776l-1,8.124H123.667a10.826,10.826,0,0,0-10.46,9.34,7.984,7.984,0,0,0,8.243,9.155l16.542,0a1.8,1.8,0,0,1,1.683,2.092,2.241,2.241,0,0,1-2.166,1.934H120.965a1.681,1.681,0,0,1-1.7-1.934h-7.405a8.114,8.114,0,0,0,8.219,9.34h16.545a10.827,10.827,0,0,0,10.461-9.34,8.231,8.231,0,0,0-8.2-9.5l-16.545,0a1.555,1.555,0,0,1-1.724-1.749,2.242,2.242,0,0,1,2.164-1.934h28.662l-1.556,12.968a8.3,8.3,0,0,0,8.4,9.551l8.212,0,.892-7.406-8.213,0a1.863,1.863,0,0,1-1.888-2.146Z" transform="translate(0 -2.244)" fill="#fabb00"></path><path id="Path_26" data-name="Path 26" d="M365.709,202.013a9.6,9.6,0,0,1-5.017,3.673,9.663,9.663,0,0,1,6.752-9.643,9.6,9.6,0,0,1-1.735,5.969m-7.919,3.673a9.662,9.662,0,0,1-6.753-9.643,9.65,9.65,0,0,1,6.753,9.643m12.026-13.03c-4.1.621-7.254,1.849-9.746,5.408a13.624,13.624,0,0,0-.829,1.336,13.51,13.51,0,0,0-.828-1.336c-2.491-3.559-5.651-4.787-9.747-5.408-.819,4.061-.744,7.45,1.748,11.009a11.808,11.808,0,0,0,7.052,4.857,9.3,9.3,0,0,0,3.558,0,11.8,11.8,0,0,0,7.044-4.854c2.492-3.559,2.567-6.948,1.748-11.009" transform="translate(-42.797)" fill="#008e3b"></path></g></svg> 